<svg width="112" height="26" viewBox="0 0 112 26" fill="none" xmlns="http://www.w3.org/2000/svg">
<path d="M92.8154 3.48535H87.5977V19.4609L92.8145 18.418L86.0361 25.7178L79.2578 18.418L84.4688 19.46V3.48535H79.2578V0.773438H92.8154V3.48535ZM67.374 0.480469C68.8867 0.480515 70.1992 0.770242 71.3115 1.34863C72.4237 1.927 73.2802 2.74973 73.8809 3.81738C74.5038 4.86302 74.8154 6.12052 74.8154 7.58887H71.2109C71.2109 6.32075 70.8774 5.35297 70.21 4.68555C69.5426 4.01822 68.5974 3.68464 67.374 3.68457C66.1504 3.68457 65.1936 4.01813 64.5039 4.68555C63.8365 5.35297 63.5029 6.3098 63.5029 7.55566V18.4014C63.503 19.6471 63.8365 20.6151 64.5039 21.3047C65.1936 21.9719 66.1506 22.3057 67.374 22.3057C68.5973 22.3056 69.5426 21.9719 70.21 21.3047C70.8773 20.6151 71.2109 19.6471 71.2109 18.4014H74.8154C74.8154 19.8473 74.5037 21.1041 73.8809 22.1719C73.2802 23.2398 72.4239 24.0632 71.3115 24.6416C70.1992 25.22 68.8867 25.5087 67.374 25.5088C65.8612 25.5088 64.537 25.231 63.4023 24.6748C62.29 24.0964 61.4227 23.2729 60.7998 22.2051C60.1992 21.115 59.8985 19.8473 59.8984 18.4014V7.58887C59.8984 6.12052 60.1991 4.85207 60.7998 3.78418C61.4227 2.71651 62.2902 1.90477 63.4023 1.34863C64.537 0.770195 65.8612 0.480469 67.374 0.480469ZM7.97559 0.8125C9.55509 0.8125 10.9232 1.11324 12.0801 1.71387C13.2592 2.31454 14.1603 3.17087 14.7832 4.2832C15.4284 5.37334 15.751 6.66371 15.751 8.1543C15.751 9.62261 15.4284 10.913 14.7832 12.0254C14.138 13.1377 13.2369 13.9941 12.0801 14.5947C10.9232 15.1953 9.55506 15.4961 7.97559 15.4961H3.60449V25.1738H0V0.8125H7.97559ZM34.6602 4.0166H23.8809V10.9238H33.4922V14.0947H23.8809V21.9697H34.6602V25.1738H20.3438V0.8125H34.6602V4.0166ZM51.5684 21.0693C51.5239 20.4242 51.4681 19.6564 51.4014 18.7666C51.3346 17.8767 51.2789 16.9527 51.2344 15.9961C51.2121 15.0396 51.2012 14.1721 51.2012 13.3936V0.8125H54.5381V25.1738H50L42.9258 4.91699C42.9703 5.49534 43.0141 6.21846 43.0586 7.08594C43.1253 7.95349 43.1701 8.85479 43.1924 9.78906C43.2369 10.7235 43.2588 11.5917 43.2588 12.3926V25.1738H39.9219V0.8125H44.46L51.5684 21.0693ZM101.354 21.8701H112V25.1738H97.75V0.8125H101.354V21.8701ZM3.60449 12.2588H7.97559C9.22145 12.2588 10.2121 11.8914 10.9463 11.1572C11.7024 10.4009 12.0801 9.39989 12.0801 8.1543C12.0801 6.8862 11.7027 5.88456 10.9463 5.15039C10.2121 4.41622 9.22145 4.0498 7.97559 4.0498H3.60449V12.2588Z" fill="#64927B"/>
</svg>
